<?xml version="1.0" encoding="UTF-8" standalone="no"?>
<!-- Created with Inkscape (http://www.inkscape.org/) -->

<svg
   width="226.12994mm"
   height="227.29997mm"
   viewBox="0 0 226.12994 227.29997"
   version="1.1"
   id="svg5"
   xml:space="preserve"
   inkscape:version="1.2.2 (732a01da63, 2022-12-09)"
   sodipodi:docname="rich-sketch.svg"
   xmlns:inkscape="http://www.inkscape.org/namespaces/inkscape"
   xmlns:sodipodi="http://sodipodi.sourceforge.net/DTD/sodipodi-0.dtd"
   xmlns="http://www.w3.org/2000/svg"
   xmlns:svg="http://www.w3.org/2000/svg"><sodipodi:namedview
     id="namedview7"
     pagecolor="#ffffff"
     bordercolor="#000000"
     borderopacity="0.25"
     inkscape:showpageshadow="2"
     inkscape:pageopacity="0.0"
     inkscape:pagecheckerboard="0"
     inkscape:deskcolor="#d1d1d1"
     inkscape:document-units="mm"
     showgrid="false"
     inkscape:zoom="0.87949174"
     inkscape:cx="-40.932732"
     inkscape:cy="377.49076"
     inkscape:window-width="2400"
     inkscape:window-height="1470"
     inkscape:window-x="650"
     inkscape:window-y="2691"
     inkscape:window-maximized="1"
     inkscape:current-layer="layer1" /><defs
     id="defs2" /><g
     inkscape:label="Layer 1"
     inkscape:groupmode="layer"
     id="layer1"
     transform="translate(10.781163,-21.72558)"><path
       style="fill:none;stroke-width:1"
       id="path428"
       d="m 49.800531,140.07037 c 0.06417,0.28973 0.138152,0.57746 0.192494,0.8692 0.203703,1.09354 0.361567,2.19519 0.527095,3.29515 0.397503,2.64148 0.726956,5.29256 1.079969,7.94019 0.433231,3.19956 0.220178,1.6486 0.638106,4.65304 0,0 3.239148,1.59045 3.239148,1.59045 v 0 c -0.481864,-3.02717 -0.242673,-1.46567 -0.7141,-4.68502 -0.545393,-3.97008 -1.001302,-7.94992 -1.403228,-11.937 0,0 -3.559484,-1.72601 -3.559484,-1.72601 z"
       inkscape:export-filename="..\..\..\..\Dev\Talks\celibrate-youre-misteaks\images\rich.svg"
       inkscape:export-xdpi="96"
       inkscape:export-ydpi="96" /><path
       style="fill:#000000;stroke-width:1"
       id="path436"
       d="m 46.891953,100.57757 c 1.471673,0.0812 2.949006,0.2984 4.381725,0.648 1.294357,0.31584 1.994545,0.58806 3.268297,1.02259 2.279708,0.83187 4.488061,1.84924 6.65771,2.93328 0.430768,0.21522 1.685621,0.92888 1.281113,0.66762 -0.679429,-0.43883 -1.405335,-0.80113 -2.107999,-1.20169 1.570908,0.89881 3.01407,1.98359 4.418684,3.11807 0.89798,0.75598 1.875846,1.40375 2.860271,2.03938 0,0 3.631681,1.41048 3.631681,1.41048 v 0 c -1.003877,-0.61929 -1.998528,-1.25874 -2.909644,-2.01087 -0.415433,-0.33369 -0.818822,-0.68238 -1.238777,-1.01036 -1.029012,-0.80365 -2.128319,-1.51328 -3.240809,-2.19414 -1.445821,-0.83164 -2.88185,-1.68054 -4.337463,-2.49492 -0.622149,-0.34807 -2.112809,-1.04303 -2.719173,-1.3263 -1.705549,-0.79676 -3.423071,-1.57151 -5.202944,-2.191045 -1.353225,-0.452112 -1.972493,-0.693317 -3.345548,-1.021585 -1.500243,-0.358672 -3.037062,-0.57286 -4.569682,-0.730936 0,0 3.172558,2.342426 3.172558,2.342426 z" /><path
       style="fill:#000000;stroke-width:1"
       id="path438"
       d="m 71.63704,109.18138 c 2.613588,-0.86583 5.365805,-1.23757 8.084939,-1.61159 2.332291,-0.31217 4.681749,-0.44717 7.0325,-0.50278 1.697162,-0.028 3.394557,-0.0153 5.091848,-0.0197 2.121366,-0.0276 4.241015,-0.0138 6.358364,0.1265 1.871509,0.1214 3.708849,0.5048 5.559389,0.78324 1.80158,0.23751 3.60676,0.44201 5.40445,0.7092 1.50872,0.17669 3.00925,0.43835 4.44829,0.9313 1.18243,0.37462 2.3107,0.90223 3.42764,1.43708 0.27812,0.12358 0.50584,0.21895 0.77344,0.35876 0.10366,0.0542 0.40703,0.23065 0.30562,0.17239 -1.03329,-0.59361 -2.06622,-1.18784 -3.10123,-1.77844 -0.0826,-0.0471 0.16158,0.1003 0.24385,0.14797 1.2092,0.70077 2.42033,1.3982 3.6305,2.0973 -1.04945,-0.60362 -2.09605,-1.21224 -3.14837,-1.81085 -0.0722,-0.041 0.13567,0.0961 0.20737,0.13786 1.19247,0.69542 2.38325,1.39391 3.58475,2.07359 0.27082,0.0943 0.14633,0.0352 0.37595,0.1719 0,0 -3.09429,-2.48057 -3.09429,-2.48057 v 0 c -0.12336,-0.0539 -0.47875,-0.24595 -0.36248,-0.1781 1.05956,0.6183 2.11968,1.23564 3.18188,1.84939 0.0726,0.042 -0.14202,-0.0893 -0.21304,-0.13398 -1.20036,-0.7043 -2.40074,-1.40861 -3.60111,-2.11291 1.04119,0.60235 2.08202,1.20532 3.12357,1.80704 0.0838,0.0484 -0.16649,-0.0986 -0.25019,-0.14705 -1.21536,-0.70395 -2.42785,-1.4129 -3.647,-2.11027 -0.34042,-0.19473 -0.71719,-0.32065 -1.06593,-0.4982 -1.11959,-0.52304 -2.25813,-1.01789 -3.44056,-1.38171 -1.4556,-0.43316 -2.95112,-0.67726 -4.4577,-0.85895 -1.79876,-0.26145 -3.60839,-0.43813 -5.40525,-0.71312 -1.845901,-0.291 -3.689399,-0.62136 -5.557511,-0.73683 -2.127935,-0.10883 -4.257831,-0.11766 -6.388205,-0.12128 -1.69681,-0.01 -3.394229,-0.0146 -5.090494,0.0357 -2.332876,0.0851 -4.661122,0.26133 -6.972972,0.59555 -2.79178,0.39295 -5.579125,0.85058 -8.312134,1.55301 0,0 3.274116,2.20856 3.274116,2.20856 z" /><path
       style="fill:#000000;stroke-width:1"
       id="path440"
       d="m 116.41596,110.13489 c -0.10254,1.1062 -0.40559,2.18725 -0.76975,3.23354 -0.48736,1.07282 -1.15571,2.04751 -1.84002,3.00194 -0.50314,0.75715 -1.00274,1.51032 -1.56606,2.22462 -0.79196,1.0954 -1.63672,2.14938 -2.51144,3.18006 -0.80633,0.99628 -1.6964,1.91287 -2.67908,2.73365 -0.81599,0.69248 -1.67158,1.33029 -2.55213,1.9375 -0.86455,0.62503 -1.80208,1.1234 -2.75546,1.59432 -1.0299,0.52695 -2.106391,0.95083 -3.194001,1.34159 -1.492697,0.45202 -3.029275,0.71818 -4.563218,0.98279 -2.275054,0.3473 -4.576487,0.53268 -6.877714,0.53996 -1.608066,-0.0336 -3.184065,-0.3415 -4.737362,-0.73496 -1.212673,-0.26825 -2.38338,-0.67891 -3.571764,-1.03264 -1.470594,-0.35581 -5.726821,-2.82616 -0.169378,0.20126 -1.395312,-1.1546 -2.654356,-2.49843 -3.661294,-4.00775 -0.195426,-0.29292 -0.371901,-0.59807 -0.557852,-0.8971 -0.619903,-1.03123 -1.135108,-2.12072 -1.413558,-3.29558 -0.180485,-0.7615 -0.221676,-1.21408 -0.325268,-1.98707 -0.206039,-1.80208 -0.1948,-3.62453 0.102875,-5.41392 0.148389,-0.70469 0.309153,-1.40702 0.475956,-2.1076 0,0 -3.471052,-1.87179 -3.471052,-1.87179 v 0 c -0.169746,0.71633 -0.281546,1.44607 -0.42645,2.16771 -0.276805,1.83237 -0.296728,3.6907 -0.108308,5.53472 0.123545,0.98702 0.22424,1.99732 0.511133,2.95465 0.262795,0.87692 0.724982,1.68362 1.168604,2.4767 0.471387,0.78904 0.612764,1.06958 1.161449,1.81123 0.867455,1.17253 1.893369,2.23216 2.96436,3.21762 2.216094,1.34856 4.319677,2.89753 6.838995,3.60131 1.178727,0.34904 2.345113,0.74115 3.550719,0.99279 1.565058,0.37032 3.152902,0.65894 4.768657,0.6355 2.306436,-0.0665 4.610666,-0.26048 6.89393,-0.5959 1.576252,-0.237 3.154401,-0.50648 4.676311,-0.9927 1.09906,-0.40131 2.1794,-0.85092 3.22821,-1.37096 0.96896,-0.47858 1.8987,-1.02536 2.78705,-1.6422 0.8864,-0.61606 1.74051,-1.27796 2.56648,-1.9729 0.98644,-0.84379 1.85932,-1.80067 2.67886,-2.80711 0.88664,-1.0269 1.73239,-2.08842 2.55842,-3.16448 0.58796,-0.70917 1.06963,-1.48333 1.58104,-2.24782 0.67961,-0.99901 1.35925,-2.00702 1.87572,-3.10233 0.38518,-1.06599 0.65409,-2.16994 0.8714,-3.28153 0,0 -3.50901,-1.83712 -3.50901,-1.83712 z" /><path
       style="fill:#000000;stroke-width:1"
       id="path442"
       d="m 120.04007,113.2231 c 1.11932,-0.0281 2.23856,0.054 3.35631,0.10948 0.51326,0.0252 1.00843,0.1373 1.50124,0.27242 0,0 -3.11546,-2.37598 -3.11546,-2.37598 v 0 c -0.50148,-0.1002 -1.0046,-0.18696 -1.51807,-0.19477 -1.14161,-0.0507 -2.28186,-0.13708 -3.42509,-0.13686 0,0 3.20107,2.32571 3.20107,2.32571 z" /><path
       style="fill:#000000;stroke-width:1"
       id="path444"
       d="m 160.4455,108.78634 c -2.67694,-0.23682 -5.36536,-0.31797 -8.05067,-0.39999 -2.26231,-0.0976 -4.52848,-0.0564 -6.79056,-0.14867 -1.72217,-0.0935 -3.44614,-0.12819 -5.17046,-0.1478 -1.71877,-0.0266 -3.43564,-0.0386 -5.15304,0.0347 -1.24292,0.0258 -2.47871,0.15707 -3.71742,0.24974 -0.78883,0.0928 -1.59359,-0.006 -2.37295,0.14646 -0.81722,0.23182 -1.56497,0.68299 -2.24528,1.1838 -0.648,0.48451 -1.15534,1.08812 -1.50464,1.81402 -0.35019,0.74953 -0.48868,1.56299 -0.56429,2.3797 -0.0148,0.81018 0.0372,1.62399 0.17857,2.422 0.20596,0.80361 0.40901,1.60799 0.61402,2.41187 0.212,0.82318 0.35394,1.66139 0.49925,2.49811 0.14829,0.96089 0.33063,1.91407 0.58395,2.85281 0.30811,1.09528 0.75182,2.14368 1.18286,3.19421 0.46062,1.03691 0.97696,2.048 1.48631,3.06155 0.37654,0.8406 0.86061,1.60837 1.45558,2.30913 0.31342,0.34027 0.66945,0.63921 1.07355,0.86685 2.1342,1.20224 2.87892,1.97286 4.77215,2.35192 1.14373,0.19984 2.31165,0.19807 3.46389,0.0836 1.07901,-0.085 2.11571,-0.41263 3.14925,-0.71304 1.19734,-0.36785 2.42872,-0.60036 3.63596,-0.93043 1.06078,-0.25739 2.10562,-0.54952 3.14837,-0.87178 0.93044,-0.31648 1.7764,-0.8229 2.6343,-1.2939 0.57545,-0.36006 1.15286,-0.71654 1.73293,-1.06952 0.91552,-0.62724 1.67572,-1.45886 2.39398,-2.29767 0.96409,-1.22209 1.8584,-2.50034 2.69778,-3.81134 0.73397,-1.15448 1.24962,-2.42451 1.79087,-3.67545 0.49061,-1.14878 0.79385,-2.36216 1.02323,-3.58636 0.22941,-1.21862 0.53701,-2.42078 0.80394,-3.63143 0.18416,-0.89217 0.27982,-1.80047 0.27322,-2.71099 -0.0137,-0.66602 -0.0781,-1.32304 -0.30808,-1.95028 -0.15124,-0.35038 -0.31604,-0.69413 -0.4976,-1.0297 0,0 -3.60937,-1.61751 -3.60937,-1.61751 v 0 c 0.18034,0.32807 0.37141,0.64655 0.51817,0.99233 0.27025,0.58043 0.38507,1.19021 0.39422,1.83212 0.0414,0.88273 -0.0589,1.76797 -0.21551,2.63638 -0.25235,1.21989 -0.52562,2.43503 -0.7881,3.65272 -0.21518,1.19833 -0.52346,2.38111 -0.98922,3.5086 -0.5099,1.24218 -1.0258,2.4892 -1.7455,3.62841 -0.80958,1.30752 -1.68186,2.583 -2.67947,3.75488 -0.70272,0.81065 -1.44545,1.60853 -2.37352,2.16541 -0.57483,0.34797 -1.1387,0.71216 -1.70953,1.06614 -0.83292,0.46567 -1.66039,0.95652 -2.57934,1.23555 -1.03334,0.32944 -2.08239,0.59173 -3.13184,0.86426 -1.20756,0.32356 -2.42995,0.58782 -3.62998,0.94007 -1.02498,0.28288 -2.0552,0.57264 -3.12181,0.64163 -1.13139,0.0815 -2.27334,0.0814 -3.38418,-0.181 -1.63064,-0.46013 -2.46515,-1.25609 1.98897,1.42068 0.13103,0.0787 -0.27645,-0.13158 -0.40799,-0.20948 -0.34499,-0.2043 -0.41047,-0.28419 -0.70851,-0.54289 -0.62863,-0.65142 -1.13412,-1.3906 -1.50778,-2.21784 -0.51444,-1.01046 -1.03053,-2.02017 -1.52161,-3.04229 -0.4173,-1.03833 -0.85301,-2.07101 -1.18101,-3.1425 -0.25804,-0.92576 -0.45477,-1.86227 -0.59332,-2.81367 -0.13849,-0.84557 -0.27364,-1.69179 -0.47593,-2.52503 -0.2117,-0.79566 -0.39124,-1.59954 -0.62169,-2.39034 -0.1704,-0.7623 -0.20431,-1.54344 -0.22911,-2.32265 0.0625,-0.77195 0.16419,-1.54567 0.50059,-2.25358 0.31685,-0.66773 0.79805,-1.21173 1.39612,-1.64841 0.6532,-0.45365 1.3553,-0.88174 2.14921,-1.02309 0.77846,-0.0731 1.56398,-0.0491 2.34194,-0.13878 1.22168,-0.11413 2.44291,-0.23242 3.67035,-0.26463 1.70332,-0.079 3.408,-0.0567 5.1126,-0.036 1.72714,0.0298 3.45332,0.0861 5.17905,0.16216 2.22898,0.0487 4.45969,-7.9e-4 6.68853,0.0735 2.73714,0.0816 5.48752,0.15132 8.19902,0.56296 0,0 -3.15342,-2.36017 -3.15342,-2.36017 z" /><path
       style="fill:#000000;stroke-width:1"
       id="path446"
       d="m 162.03246,107.95961 c -2.79649,-1.25346 -5.65885,-2.37349 -8.57116,-3.32934 -2.66869,-0.87589 -4.17017,-1.26004 -6.86723,-2.00951 -3.90992,-0.99832 -2.03816,-0.53781 -5.6132,-1.38992 0,0 2.81969,2.1483 2.81969,2.1483 v 0 c 3.47418,0.77969 1.64994,0.35073 5.46978,1.29928 1.13049,0.31504 2.26698,0.60931 3.39148,0.94511 4.25465,1.27052 8.44043,2.81692 12.4263,4.78033 0,0 -3.05566,-2.44425 -3.05566,-2.44425 z" /><path
       style="fill:#000000;stroke-width:1"
       id="path452"
       d="m 101.50253,140.21426 c 0.007,1.1064 0.25319,2.18336 0.5932,3.22949 0.96543,2.38723 2.17381,2.30285 4.88494,3.79295 0.90785,0.19974 1.82925,0.0769 2.73037,-0.0929 0.99575,-0.22228 1.9306,-0.65146 2.85874,-1.06533 0.79446,-0.38551 1.56637,-0.81706 2.39437,-1.12767 0.491,-0.21479 0.9485,-0.47504 1.48074,-0.56372 0.40728,-0.0784 0.81879,0.0411 1.17365,0.2472 0.0856,0.0497 0.32888,0.21988 0.24254,0.17143 -1.05901,-0.59418 -2.10789,-1.20625 -3.16184,-1.80937 0.43978,0.34695 0.47971,0.54447 0.30045,1.06045 -0.29084,0.59964 -0.61142,1.18511 -0.88784,1.79156 -0.21139,0.51967 -0.29099,1.07308 -0.33043,1.62854 -1e-5,0.21266 -0.006,0.53727 0.21876,0.66307 3.51538,1.97056 2.57463,1.97199 4.86787,2.05179 1.61967,0.0546 3.22587,-0.24487 4.76481,-0.73069 0.60114,-0.26912 1.24813,-0.44146 1.83453,-0.7439 0.21809,-0.11248 0.42662,-0.24274 0.64323,-0.35805 0.55168,-0.35327 1.15495,-0.59986 1.75371,-0.85876 0.55155,-0.23362 1.01011,-0.57319 1.42914,-0.99614 0.42949,-0.38727 0.81061,-0.82254 1.16302,-1.27978 0.34733,-0.40109 0.59406,-0.85494 0.79711,-1.34069 0.25155,-0.66807 0.4827,-1.34425 0.68867,-2.02777 0.23266,-0.66322 0.36209,-1.3485 0.4321,-2.04581 0.10719,-0.86792 -0.0304,-1.71613 -0.21091,-2.56246 -0.1153,-0.64669 -0.3028,-1.27556 -0.5166,-1.8955 0,0 -3.5748,-1.65871 -3.5748,-1.65871 v 0 c 0.2545,0.593 0.43549,1.21808 0.56292,1.8506 0.17942,0.80799 0.35684,1.6111 0.24454,2.44482 -0.056,0.67496 -0.16313,1.34085 -0.39143,1.9818 -0.1892,0.67222 -0.42821,1.32954 -0.68353,1.97916 -0.1915,0.4533 -0.41751,0.87887 -0.74506,1.25261 -0.34162,0.4434 -0.71385,0.86255 -1.13324,1.23475 -0.39442,0.37816 -0.83815,0.66677 -1.34288,0.88079 -0.60439,0.26927 -1.21197,0.52806 -1.77056,0.88779 -0.76427,0.42566 -1.5656,0.76763 -2.3866,1.07108 -1.51803,0.4719 -3.09675,0.73655 -4.69152,0.60933 -0.2076,-0.0178 -0.41602,-0.0278 -0.6228,-0.0534 -0.16182,-0.0201 -0.61703,-0.17513 -0.48197,-0.0838 0.98458,0.666 2.05452,1.19699 3.06147,1.82864 0.13647,0.0856 -0.76606,-0.18704 -0.39237,-0.28386 0.0199,-0.51207 0.0657,-1.02613 0.25007,-1.50946 0.26564,-0.61802 0.59392,-1.20732 0.90095,-1.80537 0.21901,-0.52036 0.36152,-1.06005 -0.0842,-1.50609 -1.19167,-0.71603 -2.3772,-1.44238 -3.57502,-2.14807 -0.47738,-0.28124 -1.06352,-0.30316 -1.59022,-0.18916 -0.52981,0.1415 -1.00414,0.40605 -1.50472,0.62592 -0.81363,0.34661 -1.58573,0.77702 -2.38737,1.14962 -0.90462,0.39965 -1.8168,0.81357 -2.79676,0.98883 -0.87655,0.12975 -1.77625,0.21505 -2.62914,-0.0877 1.0115,0.59723 2.03192,1.1796 3.03449,1.79171 0.0995,0.0607 -0.2243,-0.0726 -0.32227,-0.1358 -0.0951,-0.0613 -0.17141,-0.14846 -0.24791,-0.23181 -0.30543,-0.33281 -0.53856,-0.72537 -0.71983,-1.13701 -0.35277,-0.98979 -0.65292,-2.02411 -0.59526,-3.08688 0,0 -3.52933,-1.79829 -3.52933,-1.79829 z" /><path
       style="fill:#000000;stroke-width:1"
       id="path454"
       d="m 92.865899,156.74991 c 2.300153,0.69757 4.662117,1.15364 7.014874,1.63119 2.233307,0.45405 4.463237,0.93173 6.714237,1.29097 3.03588,0.48056 6.11007,0.56544 9.17635,0.64382 2.96212,0.0933 5.92579,0.0243 8.88195,-0.17337 1.43877,-0.11672 2.87511,-0.31295 4.23037,-0.82309 0.66063,-0.31501 1.29657,-0.67264 1.93468,-1.02885 0.44675,-0.2891 0.95192,-0.46711 1.43468,-0.6862 0.42608,-0.21722 0.84203,-0.45459 1.25706,-0.69235 0,0 -3.29662,-2.14528 -3.29662,-2.14528 v 0 c -0.40909,0.22774 -0.81771,0.45892 -1.24351,0.6542 -0.50097,0.21336 -1.01093,0.40969 -1.46419,0.71779 -0.60719,0.36006 -1.2257,0.70341 -1.87101,0.99106 -1.30624,0.46987 -2.68117,0.69169 -4.06203,0.80729 -2.9188,0.21356 -5.84719,0.29713 -8.77328,0.20679 -3.09119,-0.0949 -6.19114,-0.22983 -9.24439,-0.75814 -2.22753,-0.38723 -4.445613,-0.82645 -6.662771,-1.26857 -2.400488,-0.48602 -4.819613,-0.95711 -7.126576,-1.79844 0,0 3.100176,2.43118 3.100176,2.43118 z" /><path
       style="fill:#000000;stroke-width:1"
       id="path456"
       d="m 91.865891,156.71355 c 0.879668,0.66716 1.718008,1.39099 2.630257,2.01483 0.744582,0.50918 1.232321,0.7829 2.010243,1.24636 2.129954,1.35573 4.289349,2.52501 6.630869,3.41418 0.9587,0.36406 1.94062,0.65568 2.91986,0.95762 2.00681,0.64941 4.09632,0.93308 6.18507,1.16002 1.58899,0.15566 3.184,0.23883 4.78021,0.25718 1.53592,0.033 3.06802,-0.0353 4.59946,-0.14581 1.72001,-0.15761 3.38638,-0.44025 5.02436,-0.9913 1.09584,-0.41769 2.09711,-1.02155 3.10087,-1.61827 0.71552,-0.36866 1.24514,-0.90141 1.65854,-1.57972 0.26162,-0.43245 0.30307,-0.89315 0.17608,-1.37167 -0.10536,-0.24451 -0.0437,-0.13146 -0.18133,-0.34105 0,0 -3.63942,-1.58194 -3.63942,-1.58194 v 0 c 0.13808,0.18374 0.0636,0.0995 0.22183,0.25397 0.19692,0.35124 0.21631,0.70231 0.005,1.05944 -0.392,0.6608 -0.84005,1.06304 -1.51964,1.44013 -0.97266,0.59137 -1.96532,1.15564 -3.0325,1.56124 -1.59545,0.52798 -3.25504,0.8127 -4.93072,0.93539 -1.54105,0.0873 -3.08368,0.12588 -4.6272,0.0887 -1.56517,-0.0242 -3.13126,-0.0719 -4.68905,-0.23683 -2.08539,-0.23966 -4.16123,-0.57317 -6.16125,-1.23233 -1.34769,-0.41816 -2.6829,-0.84681 -3.976097,-1.41729 -0.382807,-0.16888 -1.470715,-0.78406 -1.137083,-0.53157 0.659918,0.4994 1.41797,0.85378 2.12696,1.28067 -0.690884,-0.40307 -1.322236,-0.75726 -1.987641,-1.1998 -0.887627,-0.59034 -1.698541,-1.28537 -2.5273,-1.95304 0,0 -3.660828,-1.46912 -3.660828,-1.46912 z" /><path
       style="fill:#000000;stroke-width:1"
       id="path458"
       d="m 101.90458,158.74606 c 2.10616,-0.32257 4.22964,-0.24059 6.34264,-0.0556 1.63592,0.13788 3.25313,0.42764 4.83982,0.84342 0.14837,0.0349 0.29674,0.0699 0.44511,0.1048 0,0 -3.11775,-2.37671 -3.11775,-2.37671 v 0 c -0.14409,-0.0336 -0.28817,-0.0672 -0.43226,-0.10077 -1.57109,-0.36315 -3.1686,-0.60267 -4.77741,-0.71894 -2.17642,-0.16124 -4.35787,-0.20559 -6.531531,0.0367 0,0 3.231381,2.26716 3.231381,2.26716 z" /><path
       style="fill:#000000;stroke-width:1"
       id="path460"
       d="m 115.13429,159.96796 c 2.14138,-0.44493 4.33666,-0.57217 6.51388,-0.72943 2.10621,-0.0935 4.20496,-0.33267 6.31473,-0.31159 0.40179,0.0184 0.78664,0.0838 1.16813,0.20451 0,0 -3.13646,-2.39234 -3.13646,-2.39234 v 0 c -0.3903,-0.0634 -0.7815,-0.10594 -1.17834,-0.0941 -2.07337,0.058 -4.13321,0.32929 -6.20537,0.41956 -2.24773,0.15686 -4.5035,0.2894 -6.7305,0.64634 0,0 3.25393,2.25709 3.25393,2.25709 z" /><path
       style="fill:#000000;stroke-width:1"
       id="path462"
       d="m 66.937588,58.464986 c -1.407809,1.211022 -2.66622,2.578032 -3.763357,4.076679 -0.343921,0.469781 -0.687663,0.941904 -0.984335,1.442866 -0.346453,0.585025 -0.627774,1.206254 -0.94166,1.809382 -1.049308,2.182759 -1.854761,4.463918 -2.629416,6.754061 0,0 3.28702,1.803159 3.28702,1.803159 v 0 c 0.673026,-2.30596 1.42961,-4.588864 2.503305,-6.745626 0.32164,-0.583089 0.616447,-1.181806 0.964924,-1.749264 1.258898,-2.049978 2.905808,-3.896428 4.878293,-5.277032 0,0 -3.314774,-2.114225 -3.314774,-2.114225 z" /><path
       style="fill:#000000;stroke-width:1"
       id="path464"
       d="m 59.4078,71.34031 c 0.686554,2.960042 1.242515,5.949632 1.794108,8.937307 0.237754,1.295823 0.388419,2.097532 0.609221,3.370159 0.152776,0.880547 0.319067,1.519942 0.224124,2.414908 -0.128887,1.214924 -0.420048,1.650942 -0.901901,2.809854 -0.455491,0.741129 -0.87167,1.507908 -1.366473,2.223391 -1.29999,1.879791 -2.694162,3.47652 -4.175323,5.215269 -2.151483,2.525654 -4.349613,5.009172 -6.553145,7.489272 -1.444503,1.67337 -2.924963,3.31501 -4.395401,4.96546 0,0 3.164068,1.90386 3.164068,1.90386 v 0 c 1.382561,-1.70708 2.784901,-3.39759 4.198244,-5.07933 2.150105,-2.52266 4.327528,-5.02068 6.492491,-7.530515 1.315453,-1.525003 3.089841,-3.567734 4.317818,-5.179488 0.541808,-0.711139 1.030967,-1.460892 1.546452,-2.191338 0.521282,-1.135845 0.888698,-1.68562 1.050282,-2.907543 0.133784,-1.0117 -0.05697,-1.518931 -0.256619,-2.50794 -0.456838,-2.263029 -0.194879,-0.955387 -0.681694,-3.403087 -0.53708,-2.929771 -1.098243,-5.857843 -1.499293,-8.809966 0,0 -3.566959,-1.720273 -3.566959,-1.720273 z" /><path
       style="fill:#000000;stroke-width:1"
       id="path466"
       d="m 71.332737,58.376145 c 0.252998,-1.132195 0.706472,-2.028024 1.756826,-2.617193 0.922171,-0.517265 1.380945,-0.518882 2.451317,-0.74781 1.815581,-0.298646 3.65656,-0.331033 5.490424,-0.401069 0,0 -3.089323,-2.221105 -3.089323,-2.221105 v 0 c -1.826823,0.113003 -3.661087,0.181448 -5.468757,0.492204 -0.504571,0.111369 -1.021681,0.176318 -1.513716,0.334103 -1.772163,0.568296 -2.554658,1.625814 -3.092624,3.317981 0,0 3.465853,1.842889 3.465853,1.842889 z" /><path
       style="fill:#000000;stroke-width:1"
       id="path468"
       d="m 76.393351,51.663501 c 0.174998,-0.271094 0.329568,-0.556524 0.524994,-0.813281 1.296154,-1.702903 3.091506,-3.255695 4.989553,-4.24452 0.518699,-0.270227 1.068974,-0.474956 1.603462,-0.712433 0.522377,-0.167198 1.044755,-0.334399 1.56713,-0.501597 0,0 -3.068167,-2.081644 -3.068167,-2.081644 v 0 c -0.523624,0.181676 -1.047245,0.36335 -1.570868,0.545023 -0.542507,0.250079 -1.100847,0.468339 -1.627526,0.750234 -1.944802,1.040914 -3.746387,2.640468 -5.189599,4.301766 -0.21871,0.251761 -0.406132,0.529082 -0.609197,0.79362 0,0 3.380218,1.962832 3.380218,1.962832 z" /><path
       style="fill:#000000;stroke-width:1"
       id="path470"
       d="m 89.00597,53.156955 c -0.06136,-0.195416 -0.165394,-0.382278 -0.184087,-0.586248 -0.07506,-0.819046 0.117743,-1.740826 0.367898,-2.502101 0.188696,-0.574246 0.393798,-1.149463 0.686004,-1.678596 0.841139,-1.523164 1.675955,-2.324608 2.819244,-3.622339 2.085154,-1.910685 1.007223,-1.084124 3.203114,-2.51919 0,0 -3.087089,-1.972355 -3.087089,-1.972355 v 0 c -2.171137,1.538637 -1.101328,0.670129 -3.18212,2.638811 -1.045115,1.182045 -2.140834,2.309236 -2.957404,3.674952 -0.696608,1.165076 -1.271857,2.903299 -1.343795,4.281585 -0.01199,0.229706 0.03714,0.458536 0.05572,0.687803 0,0 3.622516,1.597678 3.622515,1.597678 z" /><path
       style="fill:#000000;stroke-width:1"
       id="path472"
       d="m 86.683785,57.704643 c -0.110103,-0.345364 -0.255304,-0.681445 -0.330308,-1.036093 -0.575786,-2.722456 -0.335637,-6.119169 0.955966,-8.617381 0.344577,-0.666483 0.858568,-1.230688 1.287851,-1.846032 1.993974,-1.824927 0.918099,-1.087184 3.195447,-2.259447 0,0 -3.067735,-2.004083 -3.067735,-2.004083 v 0 c -2.30097,1.307615 -1.215096,0.508063 -3.22581,2.441257 -0.440558,0.64384 -0.965417,1.237472 -1.321671,1.931522 -0.365432,0.711935 -0.615304,1.48209 -0.826696,2.253909 -0.666795,2.434574 -0.740071,5.040061 -0.2418,7.507366 0,0 3.574756,1.628982 3.574756,1.628982 z" /><path
       style="fill:#000000;stroke-width:1"
       id="path474"
       d="m 92.820777,57.74931 c 1.539029,-3.253648 2.741298,-6.652422 3.978892,-10.027418 1.414563,-3.857593 1.487596,-4.078639 2.829544,-7.812013 0,0 -2.893748,-1.598649 -2.893748,-1.598649 v 0 c -1.744948,5.185309 -3.469159,10.434087 -5.948865,15.327476 -0.379434,0.748763 -0.837055,1.455269 -1.255583,2.182905 0,0 3.28976,1.927699 3.28976,1.927699 z" /><path
       style="fill:#000000;stroke-width:1"
       id="path476"
       d="m 104.08969,49.013914 c 2.28668,-4.456589 4.8676,-8.750229 7.48234,-13.019085 0,0 -2.84518,-1.650516 -2.84518,-1.650516 v 0 c -1.73922,2.908165 -2.48671,4.175927 -4.27806,7.096586 -0.67239,1.096287 -1.33399,2.199595 -2.03296,3.279129 -0.51598,0.796906 -1.07397,1.565815 -1.61096,2.348725 0,0 3.28482,1.945161 3.28482,1.945161 z" /><path
       style="fill:#000000;stroke-width:1"
       id="path478"
       d="m 112.3873,46.371359 c 0.48042,-0.273434 0.96603,-0.537962 1.44128,-0.820299 1.90081,-1.129236 3.77269,-2.306494 5.66414,-3.451336 3.95281,-2.392529 2.93458,-1.778447 6.83516,-4.024487 0,0 -2.78738,-1.808369 -2.78738,-1.808369 v 0 c -4.21732,2.49233 -8.40434,5.084707 -12.80202,7.253166 -0.5277,0.260204 -1.07323,0.482581 -1.60984,0.723874 0,0 3.25866,2.127451 3.25866,2.127451 z" /><path
       style="fill:#000000;stroke-width:1"
       id="path480"
       d="m 127.09639,44.577314 c -0.0571,-0.568229 -0.0566,-1.648229 0.64828,-1.874805 0.52756,-0.169572 1.71559,0.0092 2.17477,0.05236 1.8249,0.454602 0.93187,0.174641 2.67968,0.837983 0,0 -2.95736,-2.309551 -2.95736,-2.309551 v 0 c -1.78978,-0.615653 -0.87107,-0.357179 -2.75795,-0.768929 -0.81787,-0.04711 -1.65445,-0.20619 -2.44514,0.146553 -0.76005,0.339071 -0.87677,1.448951 -0.87986,2.154116 0,0 3.53758,1.762275 3.53758,1.762275 z" /><path
       style="fill:#000000;stroke-width:1"
       id="path482"
       d="m 121.40148,54.2984 c 0.78521,-1.005412 1.0787,-1.485123 2.18291,-2.334377 2.59442,-1.995371 5.70098,-3.373509 8.78451,-4.408432 1.04768,-0.351631 2.12802,-0.597199 3.19202,-0.8958 0.91313,-0.108693 1.82626,-0.217386 2.73939,-0.32608 0,0 -2.87271,-2.027356 -2.87271,-2.027356 v 0 c -0.89518,0.141644 -1.79035,0.283292 -2.68553,0.424936 -1.05339,0.317482 -2.1201,0.593691 -3.16015,0.952442 -3.0947,1.067477 -6.40808,2.466157 -9.10481,4.354504 -1.00709,0.705208 -1.63205,1.43309 -2.44781,2.29534 0,0 3.37218,1.964823 3.37218,1.964823 z" /><path
       style="fill:#000000;stroke-width:1"
       id="path484"
       d="m 136.03376,54.139009 c 1.01764,-0.772853 2.43669,-1.622673 3.71247,-1.818854 0.85498,-0.131472 1.37256,0.03361 2.19501,0.186611 0.28501,0.155937 0.57002,0.311875 0.85503,0.467815 0,0 -2.99387,-2.384513 -2.99387,-2.384513 v 0 c -0.30318,-0.122862 -0.60637,-0.245726 -0.90955,-0.368588 -0.92894,-0.108305 -1.32277,-0.224504 -2.27571,-0.0321 -1.34627,0.271827 -2.84081,1.155652 -3.96932,1.925918 0,0 3.38594,2.02371 3.38594,2.023711 z" /><path
       style="fill:#000000;stroke-width:1"
       id="path486"
       d="m 132.55241,54.30466 c 0.40375,-0.253278 0.79181,-0.533477 1.21124,-0.759833 3.53111,-1.905625 7.68985,-3.304181 11.68819,-3.705207 1.00841,-0.10114 2.02592,-0.0646 3.03888,-0.0969 2.2754,0.260906 2.89791,0.145182 4.95571,1.062088 0.63616,0.283459 1.20122,0.705186 1.80183,1.05778 0,0 -2.82731,-2.283671 -2.82731,-2.283671 v 0 c -0.60223,-0.321982 -1.17265,-0.712288 -1.8067,-0.965947 -2.04626,-0.818639 -2.70077,-0.699449 -4.93418,-0.894244 -1.0088,0.05303 -2.023,0.04221 -3.02641,0.159078 -2.36567,0.275524 -4.25725,0.778267 -6.5238,1.502831 -1.82442,0.583229 -3.74783,1.327648 -5.49902,2.126126 -0.46841,0.213582 -0.91606,0.470069 -1.37408,0.705104 0,0 3.29565,2.092796 3.29565,2.092796 z" /><path
       style="fill:#000000;stroke-width:1"
       id="path488"
       d="m 144.01533,58.284554 c 0.92938,0.155953 1.10342,0.135099 2.08361,0.58479 0.51178,0.234794 1.9702,0.526134 1.48311,0.808606 -0.5069,0.29396 -1.06136,-0.496959 -1.59204,-0.745437 0,0 3.41052,1.342665 3.41052,1.342665 v 0 c -0.8516,-0.527719 -4.44276,-2.929951 -6.26607,-3.713959 -0.94746,-0.407402 -1.34915,-0.452003 -2.27342,-0.642794 0,0 3.15429,2.366129 3.15429,2.366129 z" /><path
       style="fill:#000000;stroke-width:1"
       id="path490"
       d="m 142.90653,59.743212 c -0.75826,-0.431355 -1.43103,-1.072449 -2.27477,-1.294072 -0.58593,-0.153902 0.9917,0.697813 1.46138,1.080424 1.0123,0.824635 2.04506,1.821516 2.93035,2.781358 0.40453,0.4386 0.77756,0.905235 1.16635,1.357852 0,0 3.38891,1.434502 3.38891,1.434502 v 0 c -0.3963,-0.464201 -0.77814,-0.941146 -1.18889,-1.3926 -0.876,-0.962789 -1.88925,-1.961464 -2.87283,-2.814391 -0.43565,-0.377785 -0.86149,-0.774785 -1.34836,-1.083778 -1.40341,-0.890683 -2.8735,-1.671664 -4.31026,-2.507499 0,0 3.04812,2.438204 3.04812,2.438204 z" /><path
       style="fill:#000000;stroke-width:1"
       id="path492"
       d="m 135.75626,57.380245 c 0.68619,1.649939 1.5846,3.199762 2.44276,4.763193 1.29174,2.353339 0.93347,1.702335 2.32704,4.328668 1.75534,3.5076 3.20167,7.162829 4.32185,10.921198 0.56869,1.907998 0.6607,2.40288 1.10132,4.259456 0.62747,2.593604 1.01689,5.229458 1.32596,7.876288 0.16877,1.269156 0.22739,2.548216 0.24687,3.82719 0.005,0.781781 0.0149,1.563362 0.009,2.345164 -0.004,0.716796 -0.008,1.433586 -0.009,2.15039 8e-4,0.333243 -7.9e-4,0.666475 -5.2e-4,0.999718 0,0 3.51181,1.78944 3.51181,1.78944 v 0 c 2.7e-4,-0.33324 -0.001,-0.666467 10e-5,-0.999701 -1.8e-4,-0.718373 -0.002,-1.436728 -0.002,-2.1551 -0.002,-0.786575 0.0184,-1.573403 -0.0106,-2.359621 -0.0537,-1.300538 -0.12408,-2.603293 -0.29043,-3.894764 -0.40905,-2.685333 -0.83248,-5.368825 -1.4991,-8.006152 -0.4764,-1.834747 -0.6163,-2.454314 -1.19918,-4.332919 -1.16535,-3.755906 -2.60293,-7.424653 -4.29771,-10.973496 -0.3987,-0.799515 -0.78787,-1.603851 -1.19609,-2.398546 -1.10025,-2.141897 -2.35826,-4.217744 -3.21625,-6.474949 0,0 -3.56595,-1.665457 -3.56595,-1.665457 z" /><path
       style="fill:#000000;stroke-width:1"
       id="path494"
       d="m 144.51354,136.51667 c 0.84419,4.06005 1.15528,8.20954 1.46954,12.33748 0.15586,2.46077 0.26549,4.94101 -0.0228,7.39748 -0.16617,1.41578 -0.27963,1.76798 -0.58368,3.14285 -0.76334,2.87514 -2.03117,5.59039 -3.50339,8.16739 -0.46108,0.80709 -0.95894,1.59261 -1.43841,2.38892 -2.61168,4.04585 -5.41862,7.96896 -8.51258,11.66039 -1.17184,1.36386 -2.41907,2.67521 -3.83794,3.78464 0,0 3.30054,2.07107 3.30054,2.07107 v 0 c 1.39413,-1.16122 2.58907,-2.5354 3.71045,-3.9576 2.95465,-3.81103 5.72952,-7.76105 8.36945,-11.79592 1.68491,-2.62517 1.27225,-1.88142 2.66887,-4.41082 0.33501,-0.60672 0.68409,-1.20654 0.98863,-1.82911 0.67196,-1.3737 1.11068,-2.85488 1.53278,-4.31839 0.2605,-1.19815 0.45616,-1.96429 0.60267,-3.19033 0.29826,-2.49615 0.0942,-5.01858 -0.0763,-7.51456 -0.37319,-4.07262 -0.70378,-8.14997 -1.12815,-12.21709 0,0 -3.53965,-1.7164 -3.53965,-1.7164 z" /><path
       style="fill:#000000;stroke-width:1"
       id="path496"
       d="m 49.973446,108.77634 c -1.057746,-2.34371 -2.134745,-4.67849 -3.288654,-6.97667 -0.716629,-1.42466 -1.510419,-2.818935 -2.557029,-4.02807 -1.330065,-1.183249 -2.902783,-2.313768 -4.670271,-2.631139 -0.610447,-0.109614 -1.23739,-0.03481 -1.850292,0.0016 -1.269754,0.07904 -2.529054,0.262281 -3.797742,0.357222 -0.779698,0.03366 -1.569082,0.04453 -2.302343,0.350536 -0.158716,0.06624 -0.305919,0.157241 -0.45888,0.23586 -0.370883,0.346448 -0.699458,0.615452 -0.98619,1.045107 -0.965327,1.446503 -1.374661,3.175624 -1.802233,4.832624 -0.386834,1.75509 -0.808548,3.52576 -0.862735,5.33116 -0.03201,1.06649 0.03534,1.4095 0.138814,2.46369 0.527981,3.28398 1.901394,6.35127 3.350392,9.31835 1.40603,2.75139 2.85678,5.49674 4.645467,8.02384 0.328554,0.46419 0.681323,0.91075 1.021985,1.36613 2.069359,2.5592 4.34976,4.93398 6.662825,7.2711 2.269278,2.2369 4.594624,4.41694 6.963158,6.5483 0.841333,0.75515 0.440283,0.40206 1.201044,1.06168 0,0 3.58983,1.45154 3.58983,1.45154 v 0 c -0.808183,-0.66434 -0.384577,-0.3065 -1.267124,-1.07785 -2.42579,-2.13028 -4.814924,-4.30464 -7.105473,-6.58062 -2.29576,-2.32817 -4.535379,-4.7144 -6.646854,-7.21213 -0.346009,-0.45057 -0.704543,-0.8918 -1.038029,-1.35172 -1.815682,-2.50406 -3.282326,-5.23965 -4.690171,-7.98623 -1.413801,-2.91981 -2.786563,-5.91856 -3.29561,-9.14948 -0.121709,-1.05687 -0.188119,-1.33694 -0.173141,-2.40792 0.025,-1.78833 0.412668,-3.54962 0.792914,-5.28826 0.446767,-1.70912 0.959278,-3.865647 2.296162,-5.133612 0.144145,-0.136713 0.312825,-0.244975 0.469239,-0.367464 0.142883,-0.06113 0.281853,-0.132374 0.428649,-0.183396 0.723548,-0.251478 1.496309,-0.219025 2.247871,-0.291894 1.255096,-0.118535 2.503519,-0.310253 3.764195,-0.360095 0.604787,-0.01262 1.205516,-0.04628 1.794007,0.127088 0.161221,0.04749 0.612362,0.271483 0.47044,0.181443 -0.950259,-0.602869 -1.93499,-1.149599 -2.902487,-1.724398 0.136033,0.0887 0.272063,0.1774 0.408096,0.266099 1.124598,1.173951 1.97862,2.558585 2.733498,3.993749 1.159549,2.22415 2.219684,4.49833 3.142059,6.83176 0,0 3.574613,1.69201 3.574613,1.69201 z" /><path
       style="fill:#000000;stroke-width:1"
       id="path498"
       d="m 40.199063,91.754104 c -0.31569,-4.352949 0.212321,3.070413 -0.157739,-2.791947 -0.309303,-4.899913 -0.271584,-2.683306 -0.467074,-8.164938 -0.129199,-3.62282 -0.131368,-5.569431 -0.173088,-9.150908 0.0053,-1.263441 0.01072,-2.526882 0.01606,-3.79032 0,0 -2.964375,-1.507467 -2.964375,-1.507467 v 0 c 0.02553,1.280295 0.05105,2.56059 0.07657,3.840888 0.153598,6.590273 0.337478,13.184825 0.159559,19.77622 0,0 3.510079,1.788472 3.510079,1.788472 z" /><path
       style="fill:#000000;stroke-width:1"
       id="path535"
       d="m 38.850358,64.332955 c 0.100089,-0.194492 0.190204,-0.394449 0.300273,-0.583472 0.2609,-0.44804 0.953201,-1.476936 1.201295,-1.850811 0.934443,-1.408197 1.882437,-2.806589 2.834087,-4.203208 2.100848,-3.088939 4.419214,-6.01704 6.860969,-8.841261 1.101542,-1.264758 2.327127,-2.418622 3.710395,-3.372294 1.374307,-0.947492 2.852761,-1.651519 4.361368,-2.348762 3.454797,-1.448512 7.046187,-2.535722 10.596118,-3.722164 2.605188,-0.890386 5.21763,-1.75669 7.83823,-2.600634 2.393477,-0.809511 4.833157,-1.464649 7.283421,-2.075918 1.699178,-0.416457 3.413583,-0.777158 5.136759,-1.080119 0.417613,-0.06766 0.838001,-0.106831 1.256347,-0.168812 0,0 -3.201339,-2.251861 -3.201339,-2.251861 v 0 c -0.409504,0.0658 -0.820611,0.123031 -1.226296,0.210576 -1.674879,0.374812 -3.351573,0.746371 -5.009208,1.19235 -2.450497,0.632355 -4.902957,1.268416 -7.296325,2.097035 -2.596935,0.858353 -5.195062,1.711571 -7.760652,2.661094 -3.535225,1.266677 -7.137501,2.34419 -10.622558,3.749432 -0.499414,0.235715 -1.006388,0.456033 -1.49824,0.707141 -2.521495,1.287312 -4.826971,2.959087 -6.630101,5.159817 -2.407896,2.865136 -4.748244,5.793131 -6.872928,8.876342 -0.575103,0.821963 -1.433999,2.055635 -2.025089,2.877021 -0.740452,1.028943 -1.518978,2.029849 -2.258552,3.059245 -0.131768,0.183404 -0.256664,0.371647 -0.384995,0.557469 0,0 3.407021,1.951794 3.407021,1.951794 z" /><path
       style="fill:#000000;stroke-width:1"
       id="path537"
       d="m 93.007475,37.791136 c 1.122762,-2.131613 1.864548,-4.420275 2.551904,-6.720023 0,0 -3.257325,-1.7736 -3.257325,-1.7736 v 0 c -0.594749,2.263886 -1.292352,4.565036 -2.678666,6.48534 0,0 3.384087,2.008283 3.384087,2.008283 z" /><path
       style="fill:#000000;stroke-width:1"
       id="path539"
       d="m 99.12501,36.473246 c 0.265975,-0.574069 0.57791,-1.126643 0.834776,-1.704941 0.331814,-0.747037 1.502754,-3.657668 1.740164,-4.231063 1.02546,-2.476653 1.1037,-2.624889 2.15778,-5.03813 0.30991,-0.695151 0.61982,-1.390301 0.92973,-2.085451 0,0 -3.0094,-1.688082 -3.0094,-1.688082 v 0 c -0.28328,0.709391 -0.56656,1.418781 -0.84984,2.128171 -0.987669,2.347067 -1.103356,2.671427 -2.179493,5.022856 -0.886076,1.936139 -1.761651,3.91545 -3.052511,5.624563 0,0 3.428794,1.972077 3.428794,1.972077 z" /><path
       style="fill:#000000;stroke-width:1"
       id="path541"
       d="m 105.58377,35.440506 c 0.85572,-1.788152 1.47968,-3.673338 2.13426,-5.54023 0,0 -2.96283,-1.646367 -2.96283,-1.646367 v 0 c -0.72242,1.797767 -1.38728,3.643842 -2.52275,5.236038 0,0 3.35132,1.950559 3.35132,1.950559 z" /><path
       style="fill:#000000;stroke-width:1"
       id="path543"
       d="m 114.50023,32.11894 c 0.14331,-0.199808 0.282,-0.403016 0.42994,-0.599424 0.91637,-1.216602 0.68526,-0.823984 1.72837,-2.25302 0.43107,-0.590571 0.84256,-1.195205 1.26652,-1.790904 1.56541,-2.199521 1.19532,-1.679346 2.75916,-3.794575 0,0 -2.97348,-1.758686 -2.97348,-1.758686 v 0 c -2.03659,2.847508 -4.09159,5.710863 -6.59645,8.172896 0,0 3.38594,2.023713 3.38594,2.023713 z" /><path
       style="fill:#000000;stroke-width:1"
       id="path545"
       d="m 122.29464,35.056818 c 0.81828,-1.885908 1.94351,-3.612404 3.0255,-5.351775 0,0 -2.92587,-1.708616 -2.92587,-1.708616 v 0 c -1.14552,1.712201 -2.29872,3.419145 -3.44384,5.131594 0,0 3.34421,1.928797 3.34421,1.928797 z" /><path
       style="fill:#000000;stroke-width:1"
       id="path547"
       d="m 132.24816,38.829432 c 0.2325,-0.347893 0.465,-0.695785 0.69751,-1.043681 0,0 -3.17723,-1.893448 -3.17723,-1.893448 v 0 c -0.28145,0.311692 -0.56289,0.623387 -0.84434,0.93508 0,0 3.32406,2.002049 3.32406,2.002049 z" /><path
       style="fill:#000000;stroke-width:1"
       id="path555"
       d="m 132.05675,33.703987 c 0.28673,0.154996 1.13996,0.632235 0.8602,0.464984 -0.61424,-0.367215 -1.1699,-0.891143 -1.86407,-1.06513 -0.60216,-0.150929 1.05712,0.651523 1.57566,0.992843 0.5729,0.3771 1.14187,0.760701 1.69806,1.162035 1.75651,1.267454 2.25542,1.716243 3.93873,3.089338 1.84441,1.500603 3.50895,3.191642 5.07904,4.971259 0,0 3.3996,1.429181 3.3996,1.429181 v 0 c -1.66839,-1.820018 -3.41015,-3.571224 -5.32888,-5.131758 -1.34823,-1.114343 -2.42114,-2.030944 -3.82101,-3.072778 -2.69541,-2.006028 -5.63381,-3.679843 -8.59948,-5.244205 0,0 3.06215,2.404231 3.06215,2.404231 z" /><path
       style="fill:#000000;stroke-width:1"
       id="path557"
       d="m 148.98501,53.516347 c 0.30632,1.279538 0.45033,2.593419 0.56427,3.901728 0.19386,2.22595 0.23814,2.791423 0.11559,5.139931 -0.0519,0.99382 -0.16608,1.983404 -0.24912,2.975104 -0.35281,2.547268 -0.38729,3.154638 -0.9183,5.627069 -0.16837,0.783968 -0.37952,1.558134 -0.56928,2.337199 0,0 3.00991,1.619237 3.00991,1.619237 v 0 c 0.56287,-2.670963 1.09969,-5.348645 1.38897,-8.066643 0.17187,-1.744065 0.42864,-4.004112 0.47255,-5.769375 0.0331,-1.33219 -0.0875,-2.691524 -0.15734,-4.022166 -0.0239,-0.454639 -0.0337,-0.909974 -0.0602,-1.364464 -0.0125,-0.214247 -0.0379,-0.427546 -0.0568,-0.641319 0,0 -3.54026,-1.736301 -3.54026,-1.736301 z" /><path
       style="fill:#000000;stroke-width:1"
       id="path561"
       d="m 53.920921,146.8259 c 0.285208,4.29794 0.302295,8.60981 0.307237,12.91556 0,0 2.853237,1.4538 2.853237,1.4538 v 0 c 0.0048,-4.20122 0.01453,-8.40966 0.307237,-12.60247 0,0 -3.467711,-1.76689 -3.467711,-1.76689 z" /><path
       style="fill:#000000;stroke-width:1"
       id="path565"
       d="m 80.079198,186.73539 c 3.194487,2.59296 6.79459,4.68298 10.537341,6.38161 0.961564,0.4364 2.004814,0.66402 3.007222,0.99603 3.357494,0.81391 3.786733,1.00575 7.282479,1.4837 1.25381,0.17143 2.51097,0.35059 3.77559,0.39729 2.34581,0.0866 4.85992,-0.18386 7.1778,-0.53828 0.95182,-0.14554 1.89243,-0.3567 2.83865,-0.53506 1.8408,-0.46717 2.25801,-0.51006 3.92296,-1.1416 0.78567,-0.29801 1.3938,-0.56817 2.06651,-1.05045 0.47233,-0.33862 0.59865,-0.52717 0.9553,-0.93981 0,0 -3.31733,-1.98734 -3.31733,-1.98734 v 0 c -0.29863,0.38956 -0.40005,0.56397 -0.80969,0.89098 -0.57393,0.45816 -1.19337,0.78643 -1.86621,1.08352 -1.53009,0.6756 -1.96714,0.73915 -3.67527,1.24794 -2.352,0.51286 -3.54647,0.85003 -6.03094,1.03819 -1.24452,0.0943 -2.4962,0.14082 -3.74319,0.0886 -1.25538,-0.0526 -2.504289,-0.22293 -3.747905,-0.40223 -3.471608,-0.50052 -4.038017,-0.74573 -7.373561,-1.61668 -1.030452,-0.36867 -2.02184,-0.87389 -3.091358,-1.10602 -0.250758,-0.0544 0.774764,0.64798 0.536956,0.55159 -0.611941,-0.24802 -1.143624,-0.66158 -1.697021,-1.02178 -1.083794,-0.70544 -2.111261,-1.51103 -3.120615,-2.31757 0,0 -3.627718,-1.50265 -3.627718,-1.50265 z" /><path
       style="fill:#000000;stroke-width:1"
       id="path567"
       d="m 55.57612,163.83069 c 2.136172,2.55389 4.332716,5.07211 6.69004,7.42625 2.969448,2.96545 6.166281,5.68944 9.351229,8.41651 2.356562,1.99838 4.776978,3.91875 7.209422,5.82323 0,0 3.354163,1.33779 3.354163,1.33779 v 0 c -2.605154,-1.95363 -5.189291,-3.93573 -7.704622,-6.00461 -0.989988,-0.82746 -1.991704,-1.64109 -2.969963,-2.48239 -4.551355,-3.91413 -8.971344,-8.06811 -12.430646,-13.00675 0,0 -3.499623,-1.51003 -3.499623,-1.51003 z" /><path
       style="fill:#000000;stroke-width:1"
       id="path620"
       d="m 81.662944,113.63358 c 1.200935,-0.74534 2.488403,-1.35466 3.820464,-1.82767 0.460026,-0.16335 0.930217,-0.29651 1.395325,-0.44477 2.505252,-0.66053 5.103228,-1.01313 7.697981,-0.9477 1.387369,0.035 2.095145,0.17705 3.430785,0.37406 0.974159,0.19125 1.956909,0.39849 2.871151,0.79851 0.17188,0.0752 0.33401,0.17099 0.50102,0.25649 0,0 -2.988543,-2.37364 -2.988543,-2.37364 v 0 c -0.160406,-0.0643 -0.317693,-0.13696 -0.481216,-0.19284 -0.868352,-0.29671 -1.780366,-0.43358 -2.684974,-0.56399 -1.313333,-0.13631 -1.966044,-0.23477 -3.330421,-0.23523 -0.676259,-2.2e-4 -1.352293,0.0362 -2.027317,0.0771 -1.978792,0.11988 -3.948464,0.35805 -5.874917,0.83923 -0.484513,0.1444 -0.973444,0.27474 -1.453536,0.43322 -0.426979,0.14095 -0.84551,0.30637 -1.26638,0.46464 -0.986568,0.371 -1.964256,0.76437 -2.925416,1.19712 0,0 3.315994,2.14551 3.315994,2.14551 z" /><path
       style="fill:#000000;stroke-width:1"
       id="path622"
       d="m 86.124022,111.21619 c 0.161978,0.3928 0.293122,0.82981 0.584663,1.1528 0.08103,0.0898 0.166413,0.18137 0.272407,0.23959 1.230189,0.67561 2.485255,1.30491 3.727884,1.95736 0.136274,-0.004 0.273852,0.007 0.408824,-0.0125 0.641289,-0.0915 1.206839,-0.46113 1.646224,-0.92199 0.09564,-0.10031 0.177443,-0.21297 0.266163,-0.31945 0.134551,-0.24836 0.213402,-0.32218 0.22769,-0.6044 0.0031,-0.0622 -0.03146,-0.39602 -0.120566,-0.45072 -3.446457,-2.11556 -2.219933,-2.31628 -3.800464,-1.97949 -0.307819,0.1138 -0.58492,0.29101 -0.867161,0.45502 0,0 3.266562,2.1261 3.266562,2.1261 v 0 c 0.246009,-0.13414 0.479316,-0.27826 0.770958,-0.26937 1.373333,0.46077 0.08779,0.0442 -3.010812,-1.84014 -0.0475,-0.0289 0.10977,0.0259 0.157861,0.0538 0.101229,0.0587 0.17499,0.14931 0.155522,0.2774 -0.01323,0.0871 -0.06622,0.1633 -0.09933,0.24496 -0.07316,0.0934 -0.137747,0.19417 -0.219487,0.28014 -0.506662,0.5329 -1.139098,0.74363 -1.860146,0.6178 0.990712,0.59542 1.992937,1.1721 2.972134,1.78628 0.09464,0.0594 -0.219049,-0.0589 -0.313444,-0.11867 -0.311364,-0.19711 -0.490604,-0.65994 -0.602036,-0.99086 0,0 -3.563448,-1.68366 -3.563448,-1.68366 z" /><path
       style="fill:#000000;stroke-width:1"
       id="path624"
       d="m 133.79574,114.30149 c 0.17892,-0.0329 0.35671,-0.0728 0.53676,-0.0988 0.25829,-0.0374 0.51815,-0.0632 0.77761,-0.0914 1.46752,-0.15986 2.9246,-0.25039 4.40232,-0.18774 0.53064,0.0225 1.05919,0.0804 1.58879,0.12056 1.40628,0.17998 2.82647,0.41489 4.1542,0.93271 0.16784,0.0654 0.64817,0.31303 0.49288,0.22171 -0.98019,-0.57645 -1.97994,-1.11896 -2.96992,-1.67845 0,0 3.60933,1.38761 3.60933,1.38761 v 0 c -1.21549,-0.69122 -2.41799,-1.40578 -3.64645,-2.07366 -0.16963,-0.0922 -0.99246,-0.30912 -1.10654,-0.33647 -1.09038,-0.26152 -2.20354,-0.41649 -3.32052,-0.50635 -0.52474,-0.0289 -1.04897,-0.0695 -1.57422,-0.0868 -1.55157,-0.0511 -3.11075,-0.021 -4.66152,0.0443 -0.28062,0.0118 -0.56052,0.0379 -0.84114,0.0497 -0.21183,0.009 -0.42395,0.008 -0.63592,0.0126 0,0 3.19434,2.2905 3.19434,2.2905 z" /><path
       style="fill:#000000;stroke-width:1"
       id="path626"
       d="m 131.81343,112.54102 c -0.3837,0.23906 -0.79017,0.52263 -0.87626,1.00266 -0.0181,0.10083 -0.008,0.20472 -0.0117,0.30709 0.0921,0.29741 0.0876,0.45394 0.40634,0.63582 1.25988,0.71891 2.53024,1.42365 3.83878,2.04962 0.1921,0.0919 0.42062,0.0689 0.63258,0.0894 0.41019,0.0397 0.80353,0.0352 1.21422,0.0392 0.42789,-0.0358 0.85314,-0.0862 1.20008,-0.36249 0.17481,-0.13918 0.27144,-0.2667 0.28805,-0.49893 0.006,-0.0907 -0.0318,-0.17911 -0.0476,-0.26866 -0.10446,-0.15405 -0.14615,-0.25484 -0.31203,-0.35094 -1.17983,-0.68351 -2.37301,-1.34374 -3.55952,-2.01561 0,0 3.07758,2.44256 3.07758,2.44256 v 0 c -5.34716,-3.1002 -4.06481,-2.20731 -2.79936,-1.68027 0.0988,0.045 0.2168,0.0906 0.20733,0.12047 -0.0184,0.058 -0.0779,0.0952 -0.12712,0.13095 -0.28921,0.20976 -0.66737,0.21065 -1.00598,0.23904 -0.44094,-0.009 -0.71088,-4e-5 -1.15471,-0.0749 -0.21005,-0.0355 -0.79498,-0.2696 -0.62249,-0.1446 0.87678,0.63539 1.85888,1.11189 2.76829,1.69962 0.10239,0.0662 -0.23631,-0.0694 -0.3414,-0.13115 -0.0664,-0.039 -0.10795,-0.10985 -0.16193,-0.16478 -0.015,-0.062 -0.0427,-0.12232 -0.0451,-0.1861 -0.0137,-0.36965 0.42433,-0.56433 0.70609,-0.66933 0,0 -3.27411,-2.20856 -3.27411,-2.20856 z" /><path
       style="fill:#000000;stroke-width:1"
       id="path628"
       d="m 141.75587,113.90778 c 0.33822,0.20275 0.62227,0.47515 0.89424,0.75701 0,0 3.5863,1.50837 3.5863,1.50837 v 0 c -0.24678,-0.29558 -0.50146,-0.57889 -0.7991,-0.82493 0,0 -3.68144,-1.44045 -3.68144,-1.44045 z" /><path
       style="fill:#000000;stroke-width:1"
       id="path630"
       d="m 140.89227,115.1599 c 0.67946,0.57258 1.38469,1.11556 2.08176,1.667 0,0 3.52817,1.41133 3.52817,1.41133 v 0 c -0.66024,-0.51036 -1.305,-1.03949 -1.95397,-1.56398 0,0 -3.65596,-1.51435 -3.65596,-1.51435 z" /><path
       style="fill:#000000;stroke-width:1"
       id="path632"
       d="m 108.87048,103.44124 c -4.79993,-2.1367 -9.881321,-3.536318 -14.967636,-4.800265 -2.981159,-0.536252 -5.968212,-1.335063 -9.014085,-1.422974 -1.781312,-0.05141 -2.082096,0.0741 -3.856852,0.336204 -3.445687,0.857766 -6.654985,2.376863 -9.855906,3.871965 -0.312775,0.15306 -0.625552,0.30612 -0.938326,0.45917 0,0 3.237891,2.12997 3.237891,2.12997 v 0 c 0.304009,-0.15607 0.60802,-0.31215 0.912029,-0.46822 3.128854,-1.53683 6.295295,-3.05758 9.719109,-3.82249 0.646613,-0.08229 1.289558,-0.201977 1.93984,-0.246867 3.62638,-0.250343 7.226829,0.743847 10.758461,1.382037 5.154195,1.28764 10.320395,2.70974 15.118445,5.03522 0,0 -3.05297,-2.45375 -3.05297,-2.45375 z" /><path
       style="fill:#000000;stroke-width:1"
       id="path636"
       d="m 129.72707,104.66645 c 4.14808,-1.62969 8.54936,-2.46632 12.89344,-3.39013 2.25278,-0.40756 4.54935,-1.06298 6.86158,-0.75559 0.60743,0.0808 0.89744,0.21009 1.44598,0.40366 1.79988,0.98826 -1.65419,-0.973857 -2.50542,-1.416282 -0.14762,-0.07673 0.25839,0.209984 0.38101,0.322434 0.41786,0.383198 0.78361,0.817938 1.15384,1.245688 0.47794,0.59968 0.24549,0.30049 0.69785,0.89716 0,0 3.61225,1.55562 3.61225,1.55562 v 0 c -0.45481,-0.60681 -0.22352,-0.29957 -0.69398,-0.92162 -1.66721,-1.97714 -2.85484,-3.091284 -5.7484,-4.082638 -0.58602,-0.155713 -0.81386,-0.241731 -1.45842,-0.286655 -2.29754,-0.160131 -4.54456,0.50945 -6.77621,0.933567 -4.4081,0.961036 -8.85409,1.837566 -13.12864,3.307336 0,0 3.26512,2.18745 3.26512,2.18745 z" /><path
       style="fill:#000000;stroke-width:1"
       id="path638"
       d="m 53.152915,163.12308 c -1.059905,3.11868 -2.944558,5.85032 -4.908076,8.46025 -0.962261,1.23732 -2.100009,2.32428 -3.089341,3.53848 -0.338683,0.41566 -0.842158,1.12513 -1.161106,1.56666 -0.624795,0.8731 -0.330507,0.44697 -0.885769,1.27637 0,0 3.378673,1.97641 3.378673,1.97641 v 0 c 0.531247,-0.82708 0.247378,-0.401 0.855348,-1.27575 0.385752,-0.54361 0.711795,-1.02084 1.133689,-1.54046 0.990098,-1.21945 2.102348,-2.33869 3.032059,-3.60803 1.936168,-2.6658 3.822076,-5.40511 5.085048,-8.4662 0,0 -3.440525,-1.92773 -3.440525,-1.92773 z" /><path
       style="fill:#000000;stroke-width:1"
       id="path642"
       d="m 40.315059,178.37997 c -6.785575,3.18869 -13.572751,6.37104 -20.396828,9.47714 -7.471481,3.44879 -15.020394,6.72386 -22.4714249,10.21655 -2.6361157,1.38305 -5.3691001,2.51419 -8.2279681,3.33479 0,0 3.1781505,2.16941 3.1781505,2.16941 v 0 c 2.813627,-0.89471 5.5184782,-2.04332 8.09626103,-3.49289 7.34175847,-3.61668 14.82146747,-6.93553 22.25918547,-10.34854 6.017306,-2.75115 3.080174,-1.41762 9.170803,-4.16436 2.343796,-1.05699 5.473695,-2.48828 7.888621,-3.50599 1.246846,-0.52545 2.510819,-1.00426 3.773395,-1.48894 0,0 -3.270195,-2.19717 -3.270195,-2.19717 z" /><path
       style="fill:#000000;stroke-width:1"
       id="path644"
       d="m 143.92104,183.47113 c 8.81185,-0.26082 17.62777,0.0607 26.43498,0.33703 9.19591,0.30766 4.71766,0.15274 13.43479,0.4632 0,0 -2.61531,-1.9128 -2.61531,-1.9128 v 0 c -8.64152,-0.23869 -4.1907,-0.10536 -13.35235,-0.40388 -9.03407,-0.33293 -18.06614,-0.7086 -27.10668,-0.81181 0,0 3.20457,2.32826 3.20457,2.32826 z" /><path
       style="fill:#000000;stroke-width:1"
       id="path646"
       d="m 186.71867,185.27086 c 7.82453,5.69345 16.42854,10.21116 25.02926,14.60256 1.20028,0.60907 2.40056,1.21815 3.60084,1.82722 0,0 -2.74802,-2.1999 -2.74802,-2.1999 v 0 c -1.17707,-0.59112 -2.35414,-1.18225 -3.53121,-1.77337 -6.46111,-3.29456 -12.97776,-6.57329 -18.76074,-11.00006 0,0 -3.59013,-1.45645 -3.59013,-1.45645 z" /><path
       style="fill:#000000;stroke-width:1"
       id="path652"
       d="m 120.67969,194.74163 c 0.0987,6.96511 -1.12526,13.86237 -2.13527,20.72928 -0.79549,5.23672 -1.66327,10.46596 -2.20503,15.73734 -0.2186,2.12688 -0.25439,2.98274 -0.38429,5.03932 -0.1867,2.58601 -0.0565,5.18138 -0.15462,7.76889 -0.0466,0.39352 -0.0252,0.71411 -0.27603,1.04647 -0.73635,0.97588 -2.41778,1.27011 -3.50145,1.50211 -0.51821,0.0695 -1.03305,0.17201 -1.55462,0.20851 -2.28053,0.15962 -4.60792,-0.12253 -6.86675,-0.3849 -3.0788,-0.35762 -4.492937,-0.58791 -7.666405,-1.04774 -7.384574,-1.11802 -14.778083,-2.30509 -21.997831,-4.24539 1.554093,1.09315 -4.530183,-2.00439 -3.426966,-1.44022 0.703048,0.35953 1.333468,1.01013 2.121937,1.0532 0.468813,0.0256 -0.698494,-0.63203 -1.000035,-0.99192 -0.927007,-1.10636 -1.336021,-1.95902 -2.063141,-3.22398 -2.27815,-4.50209 -4.135628,-9.20225 -5.87951,-13.93204 -1.92033,-5.62025 -3.731876,-11.27678 -5.448485,-16.96234 -1.245939,-4.32956 -2.457553,-8.66705 -3.788452,-12.97145 -0.95117,-2.82309 -1.768184,-5.69526 -2.897804,-8.45461 -0.395277,-1.0131 -0.928148,-1.96492 -1.61503,-2.80726 0,0 -3.641439,-1.54845 -3.641439,-1.54845 v 0 c 0.703206,0.8361 1.328745,1.70048 1.727932,2.7336 1.220769,2.74771 2.059742,5.63989 3.039102,8.47815 1.360496,4.30715 2.557931,8.66014 3.837493,12.99168 1.750822,5.69387 3.627657,11.3459 5.492994,17.00312 1.659686,4.74648 3.547488,9.41389 5.746585,13.93836 0.64619,1.18801 1.777302,3.5285 2.929523,4.33659 2.538637,1.78041 4.885671,3.18332 7.799768,4.04562 7.194513,1.79999 14.528183,2.9654 21.853599,4.08842 3.056225,0.46919 4.820485,0.76471 7.812015,1.13778 2.32193,0.28956 4.69719,0.57964 7.04286,0.40078 0.53357,-0.0407 1.06002,-0.14759 1.59003,-0.22138 1.28884,-0.29094 2.93274,-0.58992 3.77854,-1.7537 0.30603,-0.42109 0.27542,-0.7011 0.33415,-1.19193 0.052,-2.61429 -0.176,-5.23337 -0.0188,-7.84853 0.0807,-2.05755 0.0951,-2.94789 0.27271,-5.07424 0.44285,-5.30179 1.24902,-10.5655 2.00009,-15.82941 0.25006,-1.68978 0.49393,-3.38049 0.7502,-5.06934 0.77833,-5.12939 1.70399,-10.25127 1.9141,-15.44603 0,0 -3.52164,-1.79436 -3.52164,-1.79436 z" /><path
       style="fill:#000000;stroke-width:1"
       id="path658"
       d="m 43.120484,112.90608 c -1.535456,0.15133 -2.811198,0.95893 -3.659878,2.24324 -0.18565,0.28095 -0.328041,0.5882 -0.492064,0.8823 -0.455964,1.12746 -0.839848,2.63576 -0.07918,3.74127 0.109133,0.1586 0.264488,0.27983 0.396732,0.41975 1.123405,0.63197 4.022805,3.34842 5.86843,1.97078 0.379621,-0.44967 0.629708,-0.99275 0.891169,-1.51606 0,0 -3.436083,-1.95612 -3.436083,-1.95612 v 0 c -0.229266,0.45988 -0.452969,0.94405 -0.793599,1.33231 -1.458375,0.79464 -4.793406,-1.92912 1.115986,1.64491 -0.14973,-0.0998 -0.319926,-0.17435 -0.449191,-0.29957 -0.906544,-0.87822 -0.537062,-2.39224 -0.148934,-3.40163 0.153242,-0.27678 0.283853,-0.56737 0.459724,-0.83035 0.822741,-1.23027 2.083036,-1.86921 3.545232,-1.93685 0,0 -3.218347,-2.29398 -3.218347,-2.29398 z" /><path
       style="fill:#000000;stroke-width:1"
       id="path660"
       d="m 43.423845,106.11352 c -2.079054,-2.26166 -5.234091,-3.67823 -8.214209,-4.38489 -0.989079,-0.10911 -2.15433,-0.20926 -2.909525,0.59667 -0.372658,0.39768 -0.443693,0.74696 -0.629002,1.24473 -0.379757,1.5153 -0.327226,3.09582 -0.159475,4.63707 0.136453,1.04657 0.406828,2.06971 0.664099,3.09152 0.121936,0.47594 0.251293,0.9485 0.399169,1.41695 0,0 3.574266,1.67333 3.574266,1.67333 v 0 c -0.172352,-0.45379 -0.298865,-0.91572 -0.419859,-1.38603 -0.242969,-1.01702 -0.545264,-2.02308 -0.699746,-3.0592 -0.21766,-1.47995 -0.276217,-3.00762 0.06843,-4.47316 0.144174,-0.40112 0.204039,-0.72636 0.517578,-1.03434 0.69709,-0.68472 1.821686,-0.46247 2.671408,-0.35349 0.962367,0.25731 1.099646,0.26169 2.04284,0.6506 0.345176,0.14232 1.32389,0.68117 1.018183,0.46682 -4.482576,-3.143 -2.423634,-1.51822 -1.571091,-0.6301 0,0 3.64693,1.54352 3.64693,1.54352 z" /></g></svg>
